<svg version="1.1" viewBox="0.0 0.0 960.0 720.0" fill="none" stroke="none" stroke-linecap="square" stroke-miterlimit="10" xmlns:xlink="http://www.w3.org/1999/xlink" xmlns="http://www.w3.org/2000/svg"><clipPath id="p.0"><path d="m0 0l960.0 0l0 720.0l-960.0 0l0 -720.0z" clip-rule="nonzero"/></clipPath><g clip-path="url(#p.0)"><path fill="#000000" fill-opacity="0.0" d="m0 0l960.0 0l0 720.0l-960.0 0z" fill-rule="evenodd"/><path fill="#000000" fill-opacity="0.0" d="m591.684 188.0934l347.77954 0l0 142.70866l-347.77954 0z" fill-rule="evenodd"/><path stroke="#f9cb9c" stroke-width="3.0" stroke-linejoin="round" stroke-linecap="butt" stroke-dasharray="12.0,9.0" d="m591.684 188.0934l347.77954 0l0 142.70866l-347.77954 0z" fill-rule="evenodd"/><path fill="#ead1dc" d="m607.28064 225.98154l81.35431 0l0 66.99213l-81.35431 0z" fill-rule="evenodd"/><path stroke="#000000" stroke-width="1.0" stroke-linejoin="round" stroke-linecap="butt" d="m607.28064 225.98154l81.35431 0l0 66.99213l-81.35431 0z" fill-rule="evenodd"/><path fill="#fff2cc" d="m728.0601 645.4858l0 0c0 -7.387024 15.638306 -13.375366 34.92914 -13.375366c19.290833 0 34.92914 5.9883423 34.92914 13.375366l0 53.50128c0 7.387024 -15.638306 13.375366 -34.92914 13.375366c-19.290833 0 -34.92914 -5.9883423 -34.92914 -13.375366z" fill-rule="evenodd"/><path fill="#000000" fill-opacity="0.0" d="m797.9184 645.4858l0 0c0 7.386963 -15.638306 13.375305 -34.92914 13.375305c-19.290833 0 -34.92914 -5.9883423 -34.92914 -13.375305" fill-rule="evenodd"/><path fill="#000000" fill-opacity="0.0" d="m728.0601 645.4858l0 0c0 -7.387024 15.638306 -13.375366 34.92914 -13.375366c19.290833 0 34.92914 5.9883423 34.92914 13.375366l0 53.50128c0 7.387024 -15.638306 13.375366 -34.92914 13.375366c-19.290833 0 -34.92914 -5.9883423 -34.92914 -13.375366z" fill-rule="evenodd"/><path stroke="#000000" stroke-width="1.0" stroke-linejoin="round" stroke-linecap="butt" d="m797.9184 645.4858l0 0c0 7.386963 -15.638306 13.375305 -34.92914 13.375305c-19.290833 0 -34.92914 -5.9883423 -34.92914 -13.375305" fill-rule="evenodd"/><path stroke="#000000" stroke-width="1.0" stroke-linejoin="round" stroke-linecap="butt" d="m728.0601 645.4858l0 0c0 -7.387024 15.638306 -13.375366 34.92914 -13.375366c19.290833 0 34.92914 5.9883423 34.92914 13.375366l0 53.50128c0 7.387024 -15.638306 13.375366 -34.92914 13.375366c-19.290833 0 -34.92914 -5.9883423 -34.92914 -13.375366z" fill-rule="evenodd"/><path fill="#000000" fill-opacity="0.0" d="m521.85614 39.331554l69.85828 0l0 105.13385l-69.85828 0z" fill-rule="evenodd"/><path fill="#000000" fill-opacity="0.0" d="m502.84042 33.69294l94.99216 0l0 105.13386l-94.99216 0z" fill-rule="evenodd"/><path fill="#000000" d="m519.3873 57.950493l32.84375 0l0 57.109375l-32.84375 0l0 -57.109375zm4.0625 53.046875l24.71875 0l0 -48.984375l-24.71875 0l0 48.984375z" fill-rule="nonzero"/><path fill="#000000" d="m567.39514 57.950493l32.84375 0l0 57.109375l-32.84375 0l0 -57.109375zm4.0625 53.046875l24.71875 0l0 -48.984375l-24.71875 0l0 48.984375z" fill-rule="nonzero"/><path fill="#ead1dc" d="m724.9252 225.98154l81.35437 0l0 66.99213l-81.35437 0z" fill-rule="evenodd"/><path stroke="#000000" stroke-width="1.0" stroke-linejoin="round" stroke-linecap="butt" d="m724.9252 225.98154l81.35437 0l0 66.99213l-81.35437 0z" fill-rule="evenodd"/><path fill="#ead1dc" d="m842.5697 225.98154l81.35437 0l0 66.99213l-81.35437 0z" fill-rule="evenodd"/><path stroke="#000000" stroke-width="1.0" stroke-linejoin="round" stroke-linecap="butt" d="m842.5697 225.98154l81.35437 0l0 66.99213l-81.35437 0z" fill-rule="evenodd"/><path fill="#d9ead3" d="m713.71094 122.50544l0 0c0 -6.16658 4.9990234 -11.165581 11.165588 -11.165581l59.023132 0c2.9613037 0 5.8013306 1.1763687 7.8952637 3.2703247c2.0939941 2.0939484 3.2703247 4.93396 3.2703247 7.895256l0 44.660973c0 6.16658 -4.9989624 11.165573 -11.165588 11.165573l-59.023132 0c-6.166565 0 -11.165588 -4.998993 -11.165588 -11.165573z" fill-rule="evenodd"/><path stroke="#000000" stroke-width="1.0" stroke-linejoin="round" stroke-linecap="butt" d="m713.71094 122.50544l0 0c0 -6.16658 4.9990234 -11.165581 11.165588 -11.165581l59.023132 0c2.9613037 0 5.8013306 1.1763687 7.8952637 3.2703247c2.0939941 2.0939484 3.2703247 4.93396 3.2703247 7.895256l0 44.660973c0 6.16658 -4.9989624 11.165573 -11.165588 11.165573l-59.023132 0c-6.166565 0 -11.165588 -4.998993 -11.165588 -11.165573z" fill-rule="evenodd"/><path fill="#000000" fill-opacity="0.0" d="m754.3881 178.33199c0 0.01574707 0.023620605 0.023620605 0.04724121 0.03149414c0.023620605 0.007873535 0.04724121 0.01574707 0.04724121 0.03149414" fill-rule="evenodd"/><path stroke="#000000" stroke-width="1.0" stroke-linejoin="round" stroke-linecap="butt" d="m754.3881 178.33199c0 0.01574707 0.023620605 0.023620605 0.04724121 0.03149414c0.023620605 0.007873535 0.04724121 0.01574707 0.04724121 0.03149414" fill-rule="evenodd"/><path fill="#000000" fill-opacity="0.0" d="m754.3881 178.33199c0 11.911484 -26.606323 17.866272 -53.212646 23.822968c-26.606262 5.9566803 -53.212585 11.915283 -53.212585 23.830582" fill-rule="evenodd"/><path stroke="#000000" stroke-width="1.0" stroke-linejoin="round" stroke-linecap="butt" d="m754.3881 178.33199c0 11.9114685 -26.606323 17.866257 -53.212585 23.822952c-13.303162 2.9783478 -26.606323 5.9571686 -36.58374 9.680817c-4.9886475 1.8618317 -9.145874 3.909851 -12.055969 6.237137c-0.72753906 0.5818176 -1.3770752 1.1810913 -1.9421997 1.7992859c-0.14129639 0.15454102 -0.2772827 0.31025696 -0.40789795 0.46717834l-0.04498291 0.055389404" fill-rule="evenodd"/><path fill="#000000" stroke="#000000" stroke-width="1.0" stroke-linecap="butt" d="m648.6017 219.7952l-0.1081543 4.828125l3.1863403 -3.6290436z" fill-rule="evenodd"/><path fill="#000000" fill-opacity="0.0" d="m754.3881 178.33199c0 11.911484 2.8031006 17.866272 5.606262 23.822968c2.8031616 5.9566803 5.6063232 11.915283 5.6063232 23.830582" fill-rule="evenodd"/><path stroke="#000000" stroke-width="1.0" stroke-linejoin="round" stroke-linecap="butt" d="m754.3881 178.33199c0 11.9114685 2.8031616 17.866257 5.6063232 23.822952c1.4015503 2.9783478 2.8031006 5.9571686 3.854309 9.680817c0.52557373 1.8618317 0.963562 3.909851 1.2702026 6.237137c0.07659912 0.5818176 0.14508057 1.1810913 0.20458984 1.7992859l0.010986328 0.11924744" fill-rule="evenodd"/><path fill="#000000" stroke="#000000" stroke-width="1.0" stroke-linecap="butt" d="m763.68445 220.06471l1.8514404 4.4603424l1.4487305 -4.606903z" fill-rule="evenodd"/><path fill="#000000" fill-opacity="0.0" d="m754.3881 178.33199c0 11.911484 32.212585 17.866272 64.42517 23.822968c32.212585 5.9566803 64.42517 11.915283 64.42517 23.830582" fill-rule="evenodd"/><path stroke="#000000" stroke-width="1.0" stroke-linejoin="round" stroke-linecap="butt" d="m754.3881 178.33199c0 11.9114685 32.212585 17.866257 64.42517 23.822952c16.106323 2.9783478 32.212646 5.9571686 44.29236 9.680817c6.039856 1.8618317 11.073059 3.909851 14.596313 6.237137c0.88079834 0.5818176 1.6672974 1.1810913 2.3514404 1.7992859c0.17108154 0.15454102 0.33569336 0.31025696 0.49389648 0.46717834l0.18939209 0.19265747" fill-rule="evenodd"/><path fill="#000000" stroke="#000000" stroke-width="1.0" stroke-linecap="butt" d="m879.2354 221.22073l3.3935547 3.4360352l-0.3909912 -4.813492z" fill-rule="evenodd"/><path fill="#000000" fill-opacity="0.0" d="m591.684 442.35593l347.77954 0l0 142.70865l-347.77954 0z" fill-rule="evenodd"/><path stroke="#f9cb9c" stroke-width="3.0" stroke-linejoin="round" stroke-linecap="butt" stroke-dasharray="12.0,9.0" d="m591.684 442.35593l347.77954 0l0 142.70865l-347.77954 0z" fill-rule="evenodd"/><path fill="#c9daf8" d="m607.28064 480.24405l81.35431 0l0 66.99216l-81.35431 0z" fill-rule="evenodd"/><path stroke="#000000" stroke-width="1.0" stroke-linejoin="round" stroke-linecap="butt" d="m607.28064 480.24405l81.35431 0l0 66.99216l-81.35431 0z" fill-rule="evenodd"/><path fill="#c9daf8" d="m724.9252 480.24405l81.35437 0l0 66.99216l-81.35437 0z" fill-rule="evenodd"/><path stroke="#000000" stroke-width="1.0" stroke-linejoin="round" stroke-linecap="butt" d="m724.9252 480.24405l81.35437 0l0 66.99216l-81.35437 0z" fill-rule="evenodd"/><path fill="#c9daf8" d="m842.5697 480.24405l81.35437 0l0 66.99216l-81.35437 0z" fill-rule="evenodd"/><path stroke="#000000" stroke-width="1.0" stroke-linejoin="round" stroke-linecap="butt" d="m842.5697 480.24405l81.35437 0l0 66.99216l-81.35437 0z" fill-rule="evenodd"/><path fill="#d9ead3" d="m713.71094 364.27792l0 0c0 -6.1665955 4.9990234 -11.165588 11.165588 -11.165588l59.023132 0c2.9613037 0 5.8013306 1.1763611 7.8952637 3.2703247c2.0939941 2.093933 3.2703247 4.93396 3.2703247 7.8952637l0 44.66095c0 6.1665955 -4.9989624 11.165588 -11.165588 11.165588l-59.023132 0c-6.166565 0 -11.165588 -4.998993 -11.165588 -11.165588z" fill-rule="evenodd"/><path stroke="#000000" stroke-width="1.0" stroke-linejoin="round" stroke-linecap="butt" d="m713.71094 364.27792l0 0c0 -6.1665955 4.9990234 -11.165588 11.165588 -11.165588l59.023132 0c2.9613037 0 5.8013306 1.1763611 7.8952637 3.2703247c2.0939941 2.093933 3.2703247 4.93396 3.2703247 7.8952637l0 44.66095c0 6.1665955 -4.9989624 11.165588 -11.165588 11.165588l-59.023132 0c-6.166565 0 -11.165588 -4.998993 -11.165588 -11.165588z" fill-rule="evenodd"/><path fill="#000000" fill-opacity="0.0" d="m754.3881 420.10446c0 15.034485 -26.606323 22.553253 -53.212646 30.069c-26.606262 7.515747 -53.212585 15.028503 -53.212585 30.056976" fill-rule="evenodd"/><path stroke="#000000" stroke-width="1.0" stroke-linejoin="round" stroke-linecap="butt" d="m754.3881 420.10446c0 15.034485 -26.606323 22.553253 -53.212585 30.069c-13.303162 3.7578735 -26.606323 7.5150146 -36.58374 12.211212c-4.9886475 2.348114 -9.145874 4.930969 -12.055969 7.8661194c-0.72753906 0.73379517 -1.3770752 1.489563 -1.9421997 2.269226c-0.28259277 0.38983154 -0.54400635 0.78564453 -0.78356934 1.1876221c-0.11975098 0.20098877 -0.23400879 0.40350342 -0.3427124 0.607605l-0.04876709 0.094451904" fill-rule="evenodd"/><path fill="#000000" stroke="#000000" stroke-width="1.0" stroke-linecap="butt" d="m647.81616 474.00897l0.5014038 4.803253l2.7033691 -4.0018005z" fill-rule="evenodd"/><path fill="#000000" fill-opacity="0.0" d="m754.3881 420.10446c0 15.034485 2.8031006 22.553253 5.606262 30.069c2.8031616 7.515747 5.6063232 15.028503 5.6063232 30.056976" fill-rule="evenodd"/><path stroke="#000000" stroke-width="1.0" stroke-linejoin="round" stroke-linecap="butt" d="m754.3881 420.10446c0 15.034485 2.8031616 22.553253 5.6063232 30.069c1.4015503 3.7578735 2.8031006 7.5150146 3.854309 12.211212c0.52557373 2.348114 0.963562 4.930969 1.2702026 7.8661194c0.07659912 0.73379517 0.14508057 1.489563 0.20458984 2.269226c0.029785156 0.38983154 0.057373047 0.78564453 0.08251953 1.1876221l0.03125 0.5250244" fill-rule="evenodd"/><path fill="#000000" stroke="#000000" stroke-width="1.0" stroke-linecap="butt" d="m763.7862 474.27765l1.7747192 4.4914246l1.5275269 -4.5813904z" fill-rule="evenodd"/><path fill="#000000" fill-opacity="0.0" d="m754.3881 420.10446c0 15.034485 32.212585 22.553253 64.42517 30.069c32.212585 7.515747 64.42517 15.028503 64.42517 30.056976" fill-rule="evenodd"/><path stroke="#000000" stroke-width="1.0" stroke-linejoin="round" stroke-linecap="butt" d="m754.3881 420.10446c0 15.034485 32.212585 22.553253 64.42517 30.069c16.106323 3.7578735 32.212646 7.5150146 44.29236 12.211212c6.039856 2.348114 11.073059 4.930969 14.596313 7.8661194c0.88079834 0.73379517 1.6672974 1.489563 2.3514404 2.269226c0.34210205 0.38983154 0.6586914 0.78564453 0.94866943 1.1876221c0.1449585 0.20098877 0.28338623 0.40350342 0.41497803 0.607605l0.104003906 0.16625977" fill-rule="evenodd"/><path fill="#000000" stroke="#000000" stroke-width="1.0" stroke-linecap="butt" d="m879.9384 474.95428l2.8816528 3.8754272l0.28363037 -4.8210144z" fill-rule="evenodd"/><path fill="#000000" fill-opacity="0.0" d="m647.9578 547.2362c0 21.21875 28.75592 31.82727 57.51178 42.4375c28.75592 10.6102295 57.51184 21.222168 57.51184 42.444336" fill-rule="evenodd"/><path stroke="#000000" stroke-width="1.0" stroke-linejoin="round" stroke-linecap="butt" d="m647.9578 547.2362c0 21.21875 28.75586 31.82727 57.51184 42.4375c14.37793 5.3051147 28.75592 10.610657 39.539368 17.242737c5.3917236 3.315979 9.884827 6.963623 13.030029 11.108643c1.5725708 2.0725098 2.8082275 4.269348 3.6506348 6.611328c0.10534668 0.2927246 0.20446777 0.5877075 0.29736328 0.88500977c0.04650879 0.14868164 0.09136963 0.2979126 0.13464355 0.4477539l0.05633545 0.2029419" fill-rule="evenodd"/><path fill="#000000" stroke="#000000" stroke-width="1.0" stroke-linecap="butt" d="m760.5412 626.39325l2.2445068 4.276062l1.0292358 -4.718384z" fill-rule="evenodd"/><path fill="#000000" fill-opacity="0.0" d="m765.60236 547.2362c0 21.21875 -0.65356445 31.82727 -1.3070679 42.4375c-0.65356445 10.6102295 -1.3071289 21.222168 -1.3071289 42.444336" fill-rule="evenodd"/><path stroke="#000000" stroke-width="1.0" stroke-linejoin="round" stroke-linecap="butt" d="m765.60236 547.2362c0 21.21875 -0.65356445 31.82727 -1.3070679 42.4375c-0.32678223 5.3051147 -0.65356445 10.610657 -0.8986206 17.242737c-0.122558594 3.315979 -0.22467041 6.963623 -0.29608154 11.108643c-0.0357666 2.0725098 -0.06390381 4.269348 -0.08300781 6.611328l-0.008972168 1.4816895" fill-rule="evenodd"/><path fill="#000000" stroke="#000000" stroke-width="1.0" stroke-linecap="butt" d="m761.3569 626.1125l1.6362915 4.543701l1.6671753 -4.5324707z" fill-rule="evenodd"/><path fill="#000000" fill-opacity="0.0" d="m883.2469 547.2362c0 21.21875 -30.062988 31.82727 -60.125977 42.4375c-30.062988 10.6102295 -60.125977 21.222168 -60.125977 42.444336" fill-rule="evenodd"/><path stroke="#000000" stroke-width="1.0" stroke-linejoin="round" stroke-linecap="butt" d="m883.2469 547.2362c0 21.21875 -30.062988 31.82727 -60.125977 42.4375c-15.031494 5.3051147 -30.062988 10.610657 -41.33661 17.242737c-5.636841 3.315979 -10.3341675 6.963623 -13.622314 11.108643c-1.644104 2.0725098 -2.935852 4.269348 -3.8165894 6.611328c-0.11010742 0.2927246 -0.21374512 0.5877075 -0.31085205 0.88500977c-0.04864502 0.14868164 -0.095581055 0.2979126 -0.14086914 0.4477539l-0.0602417 0.20776367" fill-rule="evenodd"/><path fill="#000000" stroke="#000000" stroke-width="1.0" stroke-linecap="butt" d="m762.19794 625.9461l1.0012817 4.7244263l2.2697144 -4.2627563z" fill-rule="evenodd"/><path fill="#000000" fill-opacity="0.0" d="m597.8326 86.259865c78.28345 0 156.5669 12.535439 156.5669 25.07087" fill-rule="evenodd"/><path stroke="#000000" stroke-width="1.0" stroke-linejoin="round" stroke-linecap="butt" d="m597.8326 86.25987c39.141724 0 78.28345 3.1338577 107.63977 7.834648c14.678162 2.3503952 26.909973 5.0925217 35.47223 8.03051c2.140564 0.7344971 4.051758 1.4812393 5.7145386 2.237152c0.83135986 0.37796783 1.600647 0.7582245 2.305359 1.1403885c0.35235596 0.19109344 0.68865967 0.38265228 1.0084839 0.57463837c0.15991211 0.09600067 0.31573486 0.19210815 0.46740723 0.2883072l0.3100586 0.20243835" fill-rule="evenodd"/><path fill="#000000" stroke="#000000" stroke-width="1.0" stroke-linecap="butt" d="m749.4393 107.57252l4.071167 2.5977707l-1.4488525 -4.606888z" fill-rule="evenodd"/><path fill="#000000" fill-opacity="0.0" d="m647.9578 292.97366c0 15.034485 26.606262 22.553253 53.212585 30.069c26.606323 7.515747 53.212585 15.028473 53.212585 30.056976" fill-rule="evenodd"/><path stroke="#000000" stroke-width="1.0" stroke-linejoin="round" stroke-linecap="butt" d="m647.9578 292.97366c0 15.034485 26.606262 22.553253 53.212585 30.069c13.303162 3.7578735 26.606323 7.514984 36.58368 12.211212c4.9887085 2.3480835 9.145935 4.930969 12.055969 7.8661194c0.727478 0.73379517 1.3771362 1.4895935 1.9422607 2.269226c0.28253174 0.38986206 0.54400635 0.78564453 0.7835083 1.1875916c0.11975098 0.20098877 0.23400879 0.40353394 0.34277344 0.607666l0.048828125 0.09442139" fill-rule="evenodd"/><path fill="#000000" stroke="#000000" stroke-width="1.0" stroke-linecap="butt" d="m751.325 347.67963l2.7033691 4.0018005l0.5014038 -4.803253z" fill-rule="evenodd"/><path fill="#000000" fill-opacity="0.0" d="m765.60236 292.97366c0 15.034485 -2.8031616 22.553253 -5.6063232 30.069c-2.8031616 7.515747 -5.606262 15.028473 -5.606262 30.056976" fill-rule="evenodd"/><path stroke="#000000" stroke-width="1.0" stroke-linejoin="round" stroke-linecap="butt" d="m765.60236 292.97366c0 15.034485 -2.8031616 22.553253 -5.6063232 30.069c-1.4015503 3.7578735 -2.8031006 7.514984 -3.854309 12.211212c-0.52557373 2.3480835 -0.963562 4.930969 -1.2701416 7.8661194c-0.076660156 0.73379517 -0.1451416 1.4895935 -0.20465088 2.269226c-0.029785156 0.38986206 -0.057373047 0.78564453 -0.08251953 1.1875916l-0.03125 0.52505493" fill-rule="evenodd"/><path fill="#000000" stroke="#000000" stroke-width="1.0" stroke-linecap="butt" d="m752.90204 347.0569l1.5275269 4.581421l1.7747192 -4.4914246z" fill-rule="evenodd"/><path fill="#000000" fill-opacity="0.0" d="m883.2469 292.97366c0 15.034485 -32.212585 22.553253 -64.42517 30.069c-32.212646 7.515747 -64.42523 15.028473 -64.42523 30.056976" fill-rule="evenodd"/><path stroke="#000000" stroke-width="1.0" stroke-linejoin="round" stroke-linecap="butt" d="m883.2469 292.97366c0 15.034485 -32.212585 22.553253 -64.42517 30.069c-16.106323 3.7578735 -32.212646 7.514984 -44.29236 12.211212c-6.039856 2.3480835 -11.073059 4.930969 -14.596313 7.8661194c-0.88079834 0.73379517 -1.6672974 1.4895935 -2.3514404 2.269226c-0.34210205 0.38986206 -0.6586914 0.78564453 -0.94866943 1.1875916c-0.14501953 0.20098877 -0.28338623 0.40353394 -0.41497803 0.607666l-0.104003906 0.16622925" fill-rule="evenodd"/><path fill="#000000" stroke="#000000" stroke-width="1.0" stroke-linecap="butt" d="m754.5313 346.87793l0.28363037 4.820984l2.8815918 -3.8753967z" fill-rule="evenodd"/><path fill="#ead1dc" d="m84.632545 245.06036l163.74805 0l0 74.80316l-163.74805 0z" fill-rule="evenodd"/><path stroke="#000000" stroke-width="1.0" stroke-linejoin="round" stroke-linecap="butt" d="m84.632545 245.06036l163.74805 0l0 74.80316l-163.74805 0z" fill-rule="evenodd"/><path fill="#fff2cc" d="m113.29385 579.5698l0 0c0 -11.680603 23.824097 -21.149597 53.2126 -21.149597c29.388504 0 53.2126 9.468994 53.2126 21.149597l0 84.59845c0 11.680603 -23.824097 21.149597 -53.2126 21.149597c-29.388504 0 -53.2126 -9.468994 -53.2126 -21.149597z" fill-rule="evenodd"/><path fill="#000000" fill-opacity="0.0" d="m219.71906 579.5698l0 0c0 11.680603 -23.824097 21.149597 -53.2126 21.149597c-29.388504 0 -53.2126 -9.468994 -53.2126 -21.149597" fill-rule="evenodd"/><path fill="#000000" fill-opacity="0.0" d="m113.29385 579.5698l0 0c0 -11.680603 23.824097 -21.149597 53.2126 -21.149597c29.388504 0 53.2126 9.468994 53.2126 21.149597l0 84.59845c0 11.680603 -23.824097 21.149597 -53.2126 21.149597c-29.388504 0 -53.2126 -9.468994 -53.2126 -21.149597z" fill-rule="evenodd"/><path stroke="#000000" stroke-width="1.0" stroke-linejoin="round" stroke-linecap="butt" d="m219.71906 579.5698l0 0c0 11.680603 -23.824097 21.149597 -53.2126 21.149597c-29.388504 0 -53.2126 -9.468994 -53.2126 -21.149597" fill-rule="evenodd"/><path stroke="#000000" stroke-width="1.0" stroke-linejoin="round" stroke-linecap="butt" d="m113.29385 579.5698l0 0c0 -11.680603 23.824097 -21.149597 53.2126 -21.149597c29.388504 0 53.2126 9.468994 53.2126 21.149597l0 84.59845c0 11.680603 -23.824097 21.149597 -53.2126 21.149597c-29.388504 0 -53.2126 -9.468994 -53.2126 -21.149597z" fill-rule="evenodd"/><path fill="#cfe2f3" d="m84.632545 400.11942l163.74805 0l0 74.80316l-163.74805 0z" fill-rule="evenodd"/><path stroke="#000000" stroke-width="1.0" stroke-linejoin="round" stroke-linecap="butt" d="m84.632545 400.11942l163.74805 0l0 74.80316l-163.74805 0z" fill-rule="evenodd"/><path fill="#000000" fill-opacity="0.0" d="m166.50656 319.86353l0 80.25195" fill-rule="evenodd"/><path stroke="#000000" stroke-width="1.0" stroke-linejoin="round" stroke-linecap="butt" d="m166.50656 319.86353l0 74.25195" fill-rule="evenodd"/><path fill="#000000" stroke="#000000" stroke-width="1.0" stroke-linecap="butt" d="m164.85483 394.11548l1.6517334 4.5381165l1.6517334 -4.5381165z" fill-rule="evenodd"/><path fill="#000000" fill-opacity="0.0" d="m166.50656 474.92258l0 83.49606" fill-rule="evenodd"/><path stroke="#000000" stroke-width="1.0" stroke-linejoin="round" stroke-linecap="butt" d="m166.50656 474.92258l0 77.49606" fill-rule="evenodd"/><path fill="#000000" stroke="#000000" stroke-width="1.0" stroke-linecap="butt" d="m164.85483 552.41864l1.6517334 4.538086l1.6517334 -4.538086z" fill-rule="evenodd"/><path fill="#000000" fill-opacity="0.0" d="m79.25722 57.47113l181.35432 0l0 126.89763l-181.35432 0z" fill-rule="evenodd"/><path fill="#000000" d="m164.38751 127.5637l-19.640625 0q-1.171875 0 -2.0 -0.8125q-0.8125 -0.828125 -0.8125 -2.0l0 -30.03125q0 -1.140625 0.8125 -1.96875q0.828125 -0.84375 2.0 -0.84375l45.1875 0q1.140625 0 1.96875 0.84375q0.84375 0.828125 0.84375 1.96875l0 30.03125q0 1.171875 -0.84375 2.0q-0.828125 0.8125 -1.96875 0.8125l-19.6875 0l0 3.3281174l7.390625 0q0.859375 0 1.453125 0.546875q0.609375 0.546875 0.609375 1.328125l0 1.875l-24.765625 0l0 -1.875q0 -0.78125 0.609375 -1.328125q0.609375 -0.546875 1.46875 -0.546875l7.375 0l0 -3.3281174zm22.5 -7.265625q0.90625 0 1.53125 -0.625q0.625 -0.625 0.625 -1.515625l0 -20.046875q0 -0.890625 -0.625 -1.515625q-0.625 -0.625 -1.53125 -0.625l-39.140625 0q-0.890625 0 -1.515625 0.625q-0.625 0.625 -0.625 1.515625l0 20.046875q0 0.890625 0.625 1.515625q0.625 0.625 1.515625 0.625l39.140625 0zm-0.421875 16.796867q0.390625 0 0.71875 0.28125q0.328125 0.265625 0.40625 0.65625l2.1875 10.625l0 0.203125q0 0.734375 -0.78125 0.734375l-42.921875 0q-0.78125 0 -0.78125 -0.734375l0.03125 -0.203125l2.15625 -10.625q0.078125 -0.390625 0.40625 -0.65625q0.328125 -0.28125 0.765625 -0.28125l37.8125 0zm17.96875 8.875q0 1.171875 -0.90625 2.109375q-0.890625 0.9375 -2.84375 0.9375q-2.546875 0 -5.0625 -1.953125q-2.515625 -1.953125 -2.515625 -3.875l0.03125 -0.46875q-2.6875 -0.78125 -2.6875 -3.15625q0 -1.015625 0.34375 -1.828125q0.359375 -0.828125 0.359375 -1.453125q0 -2.0 -4.65625 -2.0q-0.34375 0 -0.609375 -0.25q-0.25 -0.25 -0.25 -0.640625q0 -0.859375 1.328125 -0.859375q2.8125 0 4.390625 0.984375q1.59375 0.96875 1.59375 2.765625q0 0.9375 -0.375 1.84375q-0.375 0.890625 -0.375 1.46875q0 1.171875 1.875 1.5625q0.984375 -0.859375 2.546875 -0.859375q2.140625 0 3.96875 0.8125q1.84375 0.796875 2.84375 2.0625q1.0 1.265625 1.0 2.796875zm-18.953125 0.390625q0.390625 0 0.65625 -0.25q0.28125 -0.265625 0.28125 -0.6875q0 -0.4375 -0.28125 -0.703125q-0.265625 -0.28125 -0.65625 -0.28125l-35.578125 0q-0.4375 0 -0.71875 0.28125q-0.265625 0.265625 -0.265625 0.703125q0 0.9375 0.984375 0.9375l35.578125 0zm-34.6875 -6.53125q-0.390625 0 -0.671875 0.28125q-0.265625 0.265625 -0.265625 0.703125q0 0.390625 0.265625 0.671875q0.28125 0.265625 0.671875 0.265625l33.75 0q0.4375 0 0.703125 -0.265625q0.28125 -0.28125 0.28125 -0.671875q0 -0.4375 -0.28125 -0.703125q-0.265625 -0.28125 -0.703125 -0.28125l-33.75 0z" fill-rule="nonzero"/><path fill="#000000" fill-opacity="0.0" d="m166.50656 155.04462l0 90.01575" fill-rule="evenodd"/><path stroke="#000000" stroke-width="1.0" stroke-linejoin="round" stroke-linecap="butt" d="m166.50656 155.04462l0 84.01575" fill-rule="evenodd"/><path fill="#000000" stroke="#000000" stroke-width="1.0" stroke-linecap="butt" d="m164.85483 239.06036l1.6517334 4.538101l1.6517334 -4.538101z" fill-rule="evenodd"/><path fill="#000000" fill-opacity="0.0" d="m116.72179 27.485565l106.4252 0l0 43.527557l-106.4252 0z" fill-rule="evenodd"/><path fill="#000000" d="m148.99371 54.405563l0 -13.359375l1.78125 0l0 11.78125l6.5625 0l0 1.578125l-8.34375 0zm9.641342 -4.84375q0 -2.6875 1.484375 -3.96875q1.25 -1.078125 3.046875 -1.078125q2.0 0 3.265625 1.3125q1.265625 1.296875 1.265625 3.609375q0 1.859375 -0.5625 2.9375q-0.5625 1.0625 -1.640625 1.65625q-1.0625 0.59375 -2.328125 0.59375q-2.03125 0 -3.28125 -1.296875q-1.25 -1.3125 -1.25 -3.765625zm1.6875 0q0 1.859375 0.796875 2.796875q0.8125 0.921875 2.046875 0.921875q1.21875 0 2.03125 -0.921875q0.8125 -0.9375 0.8125 -2.84375q0 -1.796875 -0.8125 -2.71875q-0.8125 -0.921875 -2.03125 -0.921875q-1.234375 0 -2.046875 0.921875q-0.796875 0.90625 -0.796875 2.765625zm15.610092 1.296875l1.609375 0.21875q-0.265625 1.65625 -1.359375 2.609375q-1.078125 0.9375 -2.671875 0.9375q-1.984375 0 -3.1875 -1.296875q-1.203125 -1.296875 -1.203125 -3.71875q0 -1.578125 0.515625 -2.75q0.515625 -1.171875 1.578125 -1.75q1.0625 -0.59375 2.3125 -0.59375q1.578125 0 2.578125 0.796875q1.0 0.796875 1.28125 2.265625l-1.59375 0.234375q-0.234375 -0.96875 -0.8125 -1.453125q-0.578125 -0.5 -1.390625 -0.5q-1.234375 0 -2.015625 0.890625q-0.78125 0.890625 -0.78125 2.8125q0 1.953125 0.75 2.84375q0.75 0.875 1.953125 0.875q0.96875 0 1.609375 -0.59375q0.65625 -0.59375 0.828125 -1.828125zm9.328125 2.359375q-0.921875 0.765625 -1.765625 1.09375q-0.828125 0.3125 -1.796875 0.3125q-1.59375 0 -2.453125 -0.78125q-0.859375 -0.78125 -0.859375 -1.984375q0 -0.71875 0.328125 -1.296875q0.328125 -0.59375 0.84375 -0.9375q0.53125 -0.359375 1.1875 -0.546875q0.46875 -0.125 1.453125 -0.25q1.984375 -0.234375 2.921875 -0.5625q0.015625 -0.34375 0.015625 -0.421875q0 -1.0 -0.46875 -1.421875q-0.625 -0.546875 -1.875 -0.546875q-1.15625 0 -1.703125 0.40625q-0.546875 0.40625 -0.8125 1.421875l-1.609375 -0.21875q0.21875 -1.015625 0.71875 -1.640625q0.5 -0.640625 1.453125 -0.984375q0.953125 -0.34375 2.1875 -0.34375q1.25 0 2.015625 0.296875q0.78125 0.28125 1.140625 0.734375q0.375 0.4375 0.515625 1.109375q0.078125 0.421875 0.078125 1.515625l0 2.1875q0 2.28125 0.109375 2.890625q0.109375 0.59375 0.40625 1.15625l-1.703125 0q-0.265625 -0.515625 -0.328125 -1.1875zm-0.140625 -3.671875q-0.890625 0.375 -2.671875 0.625q-1.015625 0.140625 -1.4375 0.328125q-0.421875 0.1875 -0.65625 0.53125q-0.21875 0.34375 -0.21875 0.78125q0 0.65625 0.5 1.09375q0.5 0.4375 1.453125 0.4375q0.9375 0 1.671875 -0.40625q0.75 -0.421875 1.09375 -1.140625q0.265625 -0.5625 0.265625 -1.640625l0 -0.609375zm4.156967 4.859375l0 -13.359375l1.640625 0l0 13.359375l-1.640625 0z" fill-rule="nonzero"/><path fill="#000000" fill-opacity="0.0" d="m647.96326 21.958006l198.5827 0l0 54.582672l-198.5827 0z" fill-rule="evenodd"/><path fill="#000000" d="m658.40076 48.878002l0 -13.359375l4.609375 0q1.546875 0 2.375 0.203125q1.140625 0.25 1.953125 0.953125q1.0625 0.890625 1.578125 2.28125q0.53125 1.390625 0.53125 3.171875q0 1.515625 -0.359375 2.703125q-0.359375 1.171875 -0.921875 1.9375q-0.546875 0.765625 -1.203125 1.21875q-0.65625 0.4375 -1.59375 0.671875q-0.9375 0.21875 -2.140625 0.21875l-4.828125 0zm1.765625 -1.578125l2.859375 0q1.3125 0 2.0625 -0.234375q0.75 -0.25 1.203125 -0.703125q0.625 -0.625 0.96875 -1.6875q0.359375 -1.0625 0.359375 -2.578125q0 -2.09375 -0.6875 -3.21875q-0.6875 -1.125 -1.671875 -1.5q-0.703125 -0.28125 -2.28125 -0.28125l-2.8125 0l0 10.203125zm18.129211 -1.53125l1.6875 0.203125q-0.40625 1.484375 -1.484375 2.3125q-1.078125 0.8125 -2.765625 0.8125q-2.125 0 -3.375 -1.296875q-1.234375 -1.3125 -1.234375 -3.671875q0 -2.453125 1.25 -3.796875q1.265625 -1.34375 3.265625 -1.34375q1.9375 0 3.15625 1.328125q1.234375 1.3125 1.234375 3.703125q0 0.15625 0 0.4375l-7.21875 0q0.09375 1.59375 0.90625 2.453125q0.8125 0.84375 2.015625 0.84375q0.90625 0 1.546875 -0.46875q0.640625 -0.484375 1.015625 -1.515625zm-5.390625 -2.65625l5.40625 0q-0.109375 -1.21875 -0.625 -1.828125q-0.78125 -0.953125 -2.03125 -0.953125q-1.125 0 -1.90625 0.765625q-0.765625 0.75 -0.84375 2.015625zm11.828796 5.765625l-3.6875 -9.671875l1.734375 0l2.078125 5.796875q0.328125 0.9375 0.625 1.9375q0.203125 -0.765625 0.609375 -1.828125l2.140625 -5.90625l1.6875 0l-3.65625 9.671875l-1.53125 0zm5.40625 0.234375l3.875 -13.8125l1.3125 0l-3.859375 13.8125l-1.328125 0zm16.74585 -1.671875q1.234375 0.859375 2.265625 1.25l-0.515625 1.21875q-1.4375 -0.515625 -2.875 -1.625q-1.484375 0.828125 -3.28125 0.828125q-1.8125 0 -3.296875 -0.875q-1.46875 -0.875 -2.265625 -2.453125q-0.796875 -1.59375 -0.796875 -3.578125q0 -1.984375 0.796875 -3.59375q0.8125 -1.625 2.28125 -2.46875q1.484375 -0.859375 3.328125 -0.859375q1.84375 0 3.328125 0.890625q1.484375 0.875 2.265625 2.453125q0.78125 1.578125 0.78125 3.5625q0 1.65625 -0.5 2.96875q-0.5 1.3125 -1.515625 2.28125zm-3.890625 -2.25q1.53125 0.421875 2.515625 1.28125q1.5625 -1.421875 1.5625 -4.28125q0 -1.625 -0.546875 -2.828125q-0.546875 -1.21875 -1.609375 -1.875q-1.0625 -0.671875 -2.390625 -0.671875q-1.96875 0 -3.28125 1.359375q-1.296875 1.34375 -1.296875 4.03125q0 2.59375 1.28125 4.0q1.296875 1.390625 3.296875 1.390625q0.953125 0 1.78125 -0.359375q-0.828125 -0.53125 -1.75 -0.765625l0.4375 -1.28125zm6.8082886 3.6875l5.125 -13.359375l1.90625 0l5.46875 13.359375l-2.015625 0l-1.546875 -4.046875l-5.59375 0l-1.46875 4.046875l-1.875 0zm3.859375 -5.484375l4.53125 0l-1.40625 -3.703125q-0.625 -1.6875 -0.9375 -2.765625q-0.265625 1.28125 -0.71875 2.546875l-1.46875 3.921875zm8.6154175 5.71875l3.875 -13.8125l1.3125 0l-3.859375 13.8125l-1.328125 0zm6.6208496 -0.234375l0 -13.359375l5.046875 0q1.328125 0 2.03125 0.125q0.96875 0.171875 1.640625 0.640625q0.671875 0.453125 1.078125 1.28125q0.40625 0.828125 0.40625 1.828125q0 1.703125 -1.09375 2.890625q-1.078125 1.171875 -3.921875 1.171875l-3.421875 0l0 5.421875l-1.765625 0zm1.765625 -7.0l3.453125 0q1.71875 0 2.4375 -0.640625q0.71875 -0.640625 0.71875 -1.796875q0 -0.84375 -0.421875 -1.4375q-0.421875 -0.59375 -1.125 -0.78125q-0.4375 -0.125 -1.640625 -0.125l-3.421875 0l0 4.78125zm10.4591675 7.0l0 -9.671875l1.46875 0l0 1.46875q0.5625 -1.03125 1.03125 -1.359375q0.484375 -0.328125 1.0625 -0.328125q0.828125 0 1.6875 0.53125l-0.5625 1.515625q-0.609375 -0.359375 -1.203125 -0.359375q-0.546875 0 -0.96875 0.328125q-0.421875 0.328125 -0.609375 0.890625q-0.28125 0.875 -0.28125 1.921875l0 5.0625l-1.625 0zm5.6189575 -4.84375q0 -2.6875 1.484375 -3.96875q1.25 -1.078125 3.046875 -1.078125q2.0 0 3.265625 1.3125q1.265625 1.296875 1.265625 3.609375q0 1.859375 -0.5625 2.9375q-0.5625 1.0625 -1.640625 1.65625q-1.0625 0.59375 -2.328125 0.59375q-2.03125 0 -3.28125 -1.296875q-1.25 -1.3125 -1.25 -3.765625zm1.6875 0q0 1.859375 0.796875 2.796875q0.8125 0.921875 2.046875 0.921875q1.21875 0 2.03125 -0.921875q0.8125 -0.9375 0.8125 -2.84375q0 -1.796875 -0.8125 -2.71875q-0.8125 -0.921875 -2.03125 -0.921875q-1.234375 0 -2.046875 0.921875q-0.796875 0.90625 -0.796875 2.765625zm15.563171 4.84375l0 -1.21875q-0.90625 1.4375 -2.703125 1.4375q-1.15625 0 -2.125 -0.640625q-0.96875 -0.640625 -1.5 -1.78125q-0.53125 -1.140625 -0.53125 -2.625q0 -1.453125 0.484375 -2.625q0.484375 -1.1875 1.4375 -1.8125q0.96875 -0.625 2.171875 -0.625q0.875 0 1.546875 0.375q0.6875 0.359375 1.109375 0.953125l0 -4.796875l1.640625 0l0 13.359375l-1.53125 0zm-5.171875 -4.828125q0 1.859375 0.78125 2.78125q0.78125 0.921875 1.84375 0.921875q1.078125 0 1.828125 -0.875q0.75 -0.890625 0.75 -2.6875q0 -1.984375 -0.765625 -2.90625q-0.765625 -0.9375 -1.890625 -0.9375q-1.078125 0 -1.8125 0.890625q-0.734375 0.890625 -0.734375 2.8125zm15.610107 4.828125l0 -1.421875q-1.125 1.640625 -3.0625 1.640625q-0.859375 0 -1.609375 -0.328125q-0.734375 -0.328125 -1.09375 -0.828125q-0.359375 -0.5 -0.5 -1.21875q-0.109375 -0.46875 -0.109375 -1.53125l0 -5.984375l1.640625 0l0 5.359375q0 1.28125 0.109375 1.734375q0.15625 0.640625 0.65625 1.015625q0.5 0.375 1.234375 0.375q0.734375 0 1.375 -0.375q0.65625 -0.390625 0.921875 -1.03125q0.265625 -0.65625 0.265625 -1.890625l0 -5.1875l1.640625 0l0 9.671875l-1.46875 0zm10.360107 -3.546875l1.609375 0.21875q-0.265625 1.65625 -1.359375 2.609375q-1.078125 0.9375 -2.671875 0.9375q-1.984375 0 -3.1875 -1.296875q-1.203125 -1.296875 -1.203125 -3.71875q0 -1.578125 0.515625 -2.75q0.515625 -1.171875 1.578125 -1.75q1.0625 -0.59375 2.3125 -0.59375q1.578125 0 2.578125 0.796875q1.0 0.796875 1.28125 2.265625l-1.59375 0.234375q-0.234375 -0.96875 -0.8125 -1.453125q-0.578125 -0.5 -1.390625 -0.5q-1.234375 0 -2.015625 0.890625q-0.78125 0.890625 -0.78125 2.8125q0 1.953125 0.75 2.84375q0.75 0.875 1.953125 0.875q0.96875 0 1.609375 -0.59375q0.65625 -0.59375 0.828125 -1.828125zm6.59375 2.078125l0.234375 1.453125q-0.6875 0.140625 -1.234375 0.140625q-0.890625 0 -1.390625 -0.28125q-0.484375 -0.28125 -0.6875 -0.734375q-0.203125 -0.46875 -0.203125 -1.9375l0 -5.578125l-1.203125 0l0 -1.265625l1.203125 0l0 -2.390625l1.625 -0.984375l0 3.375l1.65625 0l0 1.265625l-1.65625 0l0 5.671875q0 0.6875 0.078125 0.890625q0.09375 0.203125 0.28125 0.328125q0.203125 0.109375 0.578125 0.109375q0.265625 0 0.71875 -0.0625zm1.6051636 -10.0l0 -1.890625l1.640625 0l0 1.890625l-1.640625 0zm0 11.46875l0 -9.671875l1.640625 0l0 9.671875l-1.640625 0zm3.5354614 -4.84375q0 -2.6875 1.484375 -3.96875q1.25 -1.078125 3.046875 -1.078125q2.0 0 3.265625 1.3125q1.265625 1.296875 1.265625 3.609375q0 1.859375 -0.5625 2.9375q-0.5625 1.0625 -1.640625 1.65625q-1.0625 0.59375 -2.328125 0.59375q-2.03125 0 -3.28125 -1.296875q-1.25 -1.3125 -1.25 -3.765625zm1.6875 0q0 1.859375 0.796875 2.796875q0.8125 0.921875 2.046875 0.921875q1.21875 0 2.03125 -0.921875q0.8125 -0.9375 0.8125 -2.84375q0 -1.796875 -0.8125 -2.71875q-0.8125 -0.921875 -2.03125 -0.921875q-1.234375 0 -2.046875 0.921875q-0.796875 0.90625 -0.796875 2.765625zm9.297607 4.84375l0 -9.671875l1.46875 0l0 1.375q1.0625 -1.59375 3.078125 -1.59375q0.875 0 1.609375 0.3125q0.734375 0.3125 1.09375 0.828125q0.375 0.5 0.515625 1.203125q0.09375 0.453125 0.09375 1.59375l0 5.953125l-1.640625 0l0 -5.890625q0 -1.0 -0.203125 -1.484375q-0.1875 -0.5 -0.671875 -0.796875q-0.484375 -0.296875 -1.140625 -0.296875q-1.046875 0 -1.8125 0.671875q-0.75 0.65625 -0.75 2.515625l0 5.28125l-1.640625 0z" fill-rule="nonzero"/></g></svg>